<?xml version="1.0" encoding="UTF-8" standalone="no"?>
<svg
   xmlns:dc="http://purl.org/dc/elements/1.1/"
   xmlns:cc="http://creativecommons.org/ns#"
   xmlns:rdf="http://www.w3.org/1999/02/22-rdf-syntax-ns#"
   xmlns:svg="http://www.w3.org/2000/svg"
   xmlns="http://www.w3.org/2000/svg"
   id="svg8"
   version="1.1"
   viewBox="0 0 62.305157 19.709129"
   height="19.709129mm"
   width="62.305157mm">
  <defs
     id="defs2" />
  <metadata
     id="metadata5">
    <rdf:RDF>
      <cc:Work
         rdf:about="">
        <dc:format>image/svg+xml</dc:format>
        <dc:type
           rdf:resource="http://purl.org/dc/dcmitype/StillImage" />
        <dc:title></dc:title>
      </cc:Work>
    </rdf:RDF>
  </metadata>
  <g
     transform="translate(58.964287,-16.839612)"
     id="layer1">
    <g
       id="text817"
       style="font-style:normal;font-variant:normal;font-weight:bold;font-stretch:normal;font-size:10.58333302px;line-height:1.25;font-family:roboto;-inkscape-font-specification:'roboto Bold';letter-spacing:0px;word-spacing:0px;fill:#448aff;fill-opacity:1;stroke:none;stroke-width:0.26458332"
       aria-label="BEST">
      <path
         id="path841"
         style="font-style:normal;font-variant:normal;font-weight:bold;font-stretch:normal;font-size:22.57777786px;font-family:'Planet Space';-inkscape-font-specification:'Planet Space Bold';fill:#448aff;fill-opacity:1;stroke-width:0.26458332"
         d="m -53.95202,21.851879 q 0,1.038578 0.722489,1.783644 0.745066,0.722489 1.783644,0.722489 h 5.034845 v 2.528711 H -56.458153 V 16.839612 q -1.038578,0 -1.783645,0.745067 -0.722489,0.722489 -0.722489,1.761066 v 7.540978 q 0,1.038578 0.722489,1.783645 0.745067,0.722489 1.783645,0.722489 h 10.047111 q 1.038577,0 1.761066,-0.722489 0.745067,-0.745067 0.745067,-1.783645 v -2.528711 q 0,-1.038578 -0.745067,-1.761067 -0.722489,-0.745066 -1.761066,-0.745066 v -2.506134 q 0,-1.038577 -0.745067,-1.761066 -0.745067,-0.745067 -1.783644,-0.745067 h -5.012267 q 0,1.038578 0.722489,1.783645 0.745066,0.722488 1.783644,0.722488 h 2.506134 v 2.506134 z" />
      <path
         id="path843"
         style="font-style:normal;font-variant:normal;font-weight:bold;font-stretch:normal;font-size:22.57777786px;font-family:'Planet Space';-inkscape-font-specification:'Planet Space Bold';fill:#448aff;fill-opacity:1;stroke-width:0.26458332"
         d="m -39.127946,26.886723 v -7.540978 h 10.047112 v 2.506134 h -7.540978 q 0,1.038578 0.722489,1.783644 0.745066,0.722489 1.783644,0.722489 h 5.034845 q 1.038577,0 1.761066,-0.722489 0.745067,-0.745066 0.745067,-1.783644 v -2.506134 q 0,-1.038577 -0.745067,-1.761066 -0.722489,-0.745067 -1.761066,-0.745067 h -10.047112 q -1.038577,0 -1.783644,0.745067 -0.722489,0.722489 -0.722489,1.761066 v 7.540978 q 0,1.038578 0.722489,1.783645 0.745067,0.722489 1.783644,0.722489 h 5.012267 q 1.038578,0 1.761067,-0.722489 0.745066,-0.745067 0.745066,-1.783645 z" />
      <path
         id="path845"
         style="font-style:normal;font-variant:normal;font-weight:bold;font-stretch:normal;font-size:22.57777786px;font-family:'Planet Space';-inkscape-font-specification:'Planet Space Bold';fill:#448aff;fill-opacity:1;stroke-width:0.26458332"
         d="m -11.750627,26.886723 h -5.034844 q -1.038578,0 -1.783645,0.745067 -0.722488,0.722489 -0.722488,1.761067 h 7.540977 q 1.038578,0 1.761067,-0.722489 0.7450667,-0.745067 0.7450667,-1.783645 v -2.528711 q 0,-1.038578 -0.7450667,-1.761067 -0.722489,-0.745066 -1.761067,-0.745066 h -10.047111 v -2.506134 h 12.5532447 q 0,-1.038577 -0.7450667,-1.761066 -0.722489,-0.745067 -1.761067,-0.745067 h -10.047111 q -1.038578,0 -1.783644,0.745067 -0.722489,0.722489 -0.722489,1.761066 v 2.506134 q 0,1.038578 0.722489,1.783644 0.745066,0.722489 1.783644,0.722489 h 10.047111 z" />
      <path
         id="path847"
         style="font-style:normal;font-variant:normal;font-weight:bold;font-stretch:normal;font-size:22.57777786px;font-family:'Planet Space';-inkscape-font-specification:'Planet Space Bold';fill:#448aff;fill-opacity:1;stroke-width:0.26458332"
         d="m -3.2031744,26.886723 v -7.540978 h -3.7704889 q 0,-1.038577 0.7224889,-1.761066 0.7450666,-0.745067 1.7836444,-0.745067 h 5.0122667 q 1.0385778,0 1.7610667,0.745067 0.7450666,0.722489 0.7450666,1.761066 v 0 h -3.74791108 v 10.047112 q -1.03857782,0 -1.78364442,-0.722489 -0.7224889,-0.745067 -0.7224889,-1.783645 z" />
    </g>
    <path
       id="rect819"
       d="M -58.93293,30.665915 H 3.3408699 v 0.801808 H -58.93293 Z"
       style="opacity:0.82599996;fill:#2351bd;fill-opacity:1;fill-rule:nonzero;stroke:none;stroke-width:0.52916664;stroke-miterlimit:4;stroke-dasharray:none;stroke-opacity:1" />
    <g
       transform="matrix(0.94706179,0,0,0.75324543,-1.4722861,7.7140387)"
       id="text823"
       style="font-style:normal;font-variant:normal;font-weight:bold;font-stretch:normal;font-size:10.58333302px;line-height:1.25;font-family:roboto;-inkscape-font-specification:'roboto Bold';letter-spacing:0px;word-spacing:0px;fill:#238aff;fill-opacity:1;stroke:none;stroke-width:0.26458332"
       aria-label="m  a  n  a  g  e  r">
      <path
         id="path825"
         style="font-style:normal;font-variant:normal;font-weight:bold;font-stretch:normal;font-size:6.3499999px;font-family:Chandas;-inkscape-font-specification:'Chandas Bold';fill:#238aff;fill-opacity:1;stroke-width:0.26458332"
         d="m -57.905696,34.150641 q 0.217041,-0.384473 0.514697,-0.564307 0.297656,-0.179834 0.700733,-0.179834 0.545703,0 0.837158,0.378272 0.291455,0.378271 0.291455,1.079004 v 2.095996 h -0.570508 v -2.077393 q 0,-0.496094 -0.179834,-0.737939 -0.173633,-0.241846 -0.539502,-0.241846 -0.440283,0 -0.700732,0.291455 -0.254248,0.291455 -0.254248,0.799951 v 1.965772 h -0.570508 v -2.077393 q 0,-0.502295 -0.179834,-0.737939 -0.179834,-0.241846 -0.545703,-0.241846 -0.440284,0 -0.694532,0.297656 -0.254248,0.291455 -0.254248,0.79375 v 1.965772 h -0.576709 v -3.472656 h 0.576709 v 0.539501 q 0.192237,-0.32246 0.465088,-0.471289 0.272852,-0.148828 0.651123,-0.148828 0.372071,0 0.638721,0.192237 0.26665,0.192236 0.390674,0.551904 z" />
      <path
         id="path827"
         style="font-style:normal;font-variant:normal;font-weight:bold;font-stretch:normal;font-size:6.3499999px;font-family:Chandas;-inkscape-font-specification:'Chandas Bold';fill:#238aff;fill-opacity:1;stroke-width:0.26458332"
         d="m -46.662971,35.217242 q -0.68833,0 -0.954981,0.15503 -0.26665,0.155029 -0.26665,0.539502 0,0.303857 0.198438,0.483691 0.198437,0.173633 0.545703,0.173633 0.471289,0 0.756543,-0.334863 0.285253,-0.334864 0.285253,-0.892969 v -0.124024 z m 1.134814,-0.235644 v 1.978174 h -0.570508 v -0.5271 q -0.192236,0.31626 -0.483691,0.471289 -0.291455,0.148828 -0.713135,0.148828 -0.5333,0 -0.84956,-0.297656 -0.310059,-0.303857 -0.310059,-0.806152 0,-0.58291 0.390674,-0.880567 0.390674,-0.297656 1.172021,-0.297656 h 0.79375 v -0.06201 q 0,-0.390673 -0.260449,-0.601513 -0.254248,-0.217041 -0.719336,-0.217041 -0.297656,0 -0.58291,0.06821 -0.285254,0.06821 -0.545703,0.217041 v -0.533301 q 0.31626,-0.117822 0.607715,-0.173633 0.297656,-0.06201 0.576709,-0.06201 0.750342,0 1.122412,0.390674 0.37207,0.390674 0.37207,1.184423 z" />
      <path
         id="path829"
         style="font-style:normal;font-variant:normal;font-weight:bold;font-stretch:normal;font-size:6.3499999px;font-family:Chandas;-inkscape-font-specification:'Chandas Bold';fill:#238aff;fill-opacity:1;stroke-width:0.26458332"
         d="m -35.221809,34.863776 v 2.095996 h -0.570507 v -2.077393 q 0,-0.496094 -0.192237,-0.737939 -0.192236,-0.241846 -0.576709,-0.241846 -0.458886,0 -0.725537,0.291455 -0.26665,0.291455 -0.26665,0.799951 v 1.965772 h -0.576709 v -3.472656 h 0.576709 v 0.539501 q 0.198437,-0.310058 0.47749,-0.465087 0.279053,-0.15503 0.638721,-0.15503 0.601513,0 0.905371,0.372071 0.310058,0.365869 0.310058,1.085205 z" />
      <path
         id="path831"
         style="font-style:normal;font-variant:normal;font-weight:bold;font-stretch:normal;font-size:6.3499999px;font-family:Chandas;-inkscape-font-specification:'Chandas Bold';fill:#238aff;fill-opacity:1;stroke-width:0.26458332"
         d="m -26.087484,35.217242 q -0.68833,0 -0.95498,0.15503 -0.266651,0.155029 -0.266651,0.539502 0,0.303857 0.198438,0.483691 0.198437,0.173633 0.545703,0.173633 0.471289,0 0.756543,-0.334863 0.285254,-0.334864 0.285254,-0.892969 v -0.124024 z m 1.134814,-0.235644 v 1.978174 h -0.570507 v -0.5271 q -0.192237,0.31626 -0.483692,0.471289 -0.291455,0.148828 -0.713135,0.148828 -0.5333,0 -0.84956,-0.297656 -0.310059,-0.303857 -0.310059,-0.806152 0,-0.58291 0.390674,-0.880567 0.390674,-0.297656 1.172022,-0.297656 h 0.79375 v -0.06201 q 0,-0.390673 -0.26045,-0.601513 -0.254248,-0.217041 -0.719336,-0.217041 -0.297656,0 -0.58291,0.06821 -0.285254,0.06821 -0.545703,0.217041 v -0.533301 q 0.31626,-0.117822 0.607715,-0.173633 0.297656,-0.06201 0.576709,-0.06201 0.750342,0 1.122412,0.390674 0.37207,0.390674 0.37207,1.184423 z" />
      <path
         id="path833"
         style="font-style:normal;font-variant:normal;font-weight:bold;font-stretch:normal;font-size:6.3499999px;font-family:Chandas;-inkscape-font-specification:'Chandas Bold';fill:#238aff;fill-opacity:1;stroke-width:0.26458332"
         d="m -15.247833,35.180035 q 0,-0.620117 -0.26045,-0.961181 -0.254248,-0.341065 -0.713134,-0.341065 -0.458887,0 -0.713135,0.341065 -0.254248,0.341064 -0.254248,0.961181 0,0.620118 0.254248,0.961182 0.254248,0.341065 0.713135,0.341065 0.458886,0 0.713134,-0.341065 0.26045,-0.341064 0.26045,-0.961182 z m 0.570508,1.351856 q 0,0.880566 -0.396875,1.314648 -0.390674,0.434082 -1.203028,0.434082 -0.303857,0 -0.570508,-0.04341 -0.26665,-0.04341 -0.514697,-0.142627 V 37.54268 q 0.248047,0.136426 0.496094,0.198437 0.248047,0.06821 0.496094,0.06821 0.564306,0 0.843359,-0.291455 0.279053,-0.291455 0.279053,-0.886767 v -0.285254 q -0.179834,0.310058 -0.452686,0.465088 -0.272851,0.148828 -0.657324,0.148828 -0.644922,0 -1.035596,-0.483692 -0.390674,-0.489892 -0.390674,-1.296045 0,-0.806152 0.390674,-1.289843 0.390674,-0.483692 1.035596,-0.483692 0.384473,0 0.657324,0.148828 0.272852,0.148829 0.452686,0.458887 v -0.527099 h 0.570508 z" />
      <path
         id="path835"
         style="font-style:normal;font-variant:normal;font-weight:bold;font-stretch:normal;font-size:6.3499999px;font-family:Chandas;-inkscape-font-specification:'Chandas Bold';fill:#238aff;fill-opacity:1;stroke-width:0.26458332"
         d="m -4.1415345,35.080817 v 0.279052 h -2.6292968 q 0.037207,0.589112 0.3534668,0.89917 0.3224609,0.310059 0.8867675,0.310059 0.3348633,0 0.6387207,-0.08061 0.3100586,-0.08062 0.613916,-0.241846 v 0.533301 q -0.3100585,0.136426 -0.6325195,0.204638 -0.3224609,0.06821 -0.651123,0.06821 -0.830957,0 -1.3208496,-0.483691 -0.4836914,-0.483691 -0.4836914,-1.314649 0,-0.84956 0.4588867,-1.345654 0.4650879,-0.502295 1.2464355,-0.502295 0.7007324,0 1.1100098,0.452686 0.4092773,0.446484 0.4092773,1.221631 z m -0.5705078,-0.167432 q -0.012402,-0.465088 -0.2666504,-0.744141 -0.254248,-0.279052 -0.6759277,-0.279052 -0.4774902,0 -0.7689453,0.26665 -0.2852539,0.26665 -0.3224609,0.762744 z" />
      <path
         id="path837"
         style="font-style:normal;font-variant:normal;font-weight:bold;font-stretch:normal;font-size:6.3499999px;font-family:Chandas;-inkscape-font-specification:'Chandas Bold';fill:#238aff;fill-opacity:1;stroke-width:0.26458332"
         d="m 5.0051902,34.020416 q -0.093018,-0.05581 -0.2108398,-0.08061 -0.1116211,-0.02481 -0.2480469,-0.02481 -0.4836914,0 -0.7441406,0.31626 -0.254248,0.310059 -0.254248,0.89917 v 1.829346 h -0.576709 v -3.472656 h 0.576709 v 0.539501 q 0.1736328,-0.316259 0.4650879,-0.465087 0.291455,-0.15503 0.7007324,-0.15503 0.062012,0 0.1302246,0.0062 0.068213,0.0062 0.1550293,0.0186 z" />
    </g>
  </g>
</svg>
